<svg id="Layer_1" data-name="Layer 1" xmlns="http://www.w3.org/2000/svg" viewBox="0 0 36 36"><defs><style>.cls-1,.cls-2{fill:none;stroke:#16a085;stroke-linecap:round;stroke-linejoin:round;}.cls-1{opacity:0.01;isolation:isolate;}</style></defs><title>automation </title><path class="cls-1" d="M.5.5h35v35H.5Z"/><path class="cls-2" d="M22.27,24.42a8.26,8.26,0,0,0,.09-1.14,8.75,8.75,0,0,0-.09-1.16l2.55-1.94a.58.58,0,0,0,.14-.76l-2.41-4.05a.62.62,0,0,0-.74-.25l-3,1.18a8.92,8.92,0,0,0-2-1.16L16.33,12a.62.62,0,0,0-.6-.49H10.86a.62.62,0,0,0-.6.51l-.45,3.1a9.3,9.3,0,0,0-2,1.16l-3-1.18a.62.62,0,0,0-.74.25L1.66,19.44a.58.58,0,0,0,.14.76l2.55,1.94a8.26,8.26,0,0,0-.09,1.14,8.75,8.75,0,0,0,.14,1.16L1.84,26.38a.58.58,0,0,0-.14.76l2.41,4.05a.62.62,0,0,0,.74.25l3-1.18a8.92,8.92,0,0,0,2,1.16l.41,3.1a.62.62,0,0,0,.6.49h4.86a.62.62,0,0,0,.6-.51l.45-3.1a9.3,9.3,0,0,0,2-1.16l3,1.18a.62.62,0,0,0,.74-.25L25,27.12a.58.58,0,0,0-.18-.76Zm-9,2.38a3.52,3.52,0,1,1,3.52-3.52A3.52,3.52,0,0,1,13.3,26.8Zm21-17.66L32.88,8.07a4.86,4.86,0,0,0,0-.63,3.31,3.31,0,0,0,0-.63l1.4-1.07a.33.33,0,0,0,.09-.38L33,3.13A.34.34,0,0,0,32.64,3L31,3.62A4.56,4.56,0,0,0,29.87,3l-.25-1.73A.31.31,0,0,0,29.3,1H26.65a.34.34,0,0,0-.33.27L26.07,3a5.33,5.33,0,0,0-1.13.63L23.3,2.95a.35.35,0,0,0-.41.15L21.57,5.36a.31.31,0,0,0,.08.41L23,6.84A5.06,5.06,0,0,0,23,8.1l-1.4,1.07a.33.33,0,0,0-.08.41l1.29,2.21a.34.34,0,0,0,.41.15l1.64-.64a4.56,4.56,0,0,0,1.13.63l.25,1.7a.33.33,0,0,0,.33.27h2.64a.34.34,0,0,0,.4-.27h0l.25-1.7A4.93,4.93,0,0,0,31,11.29l1.65.64a.35.35,0,0,0,.41-.15l1.32-2.24A.33.33,0,0,0,34.3,9.14ZM28,9.2a1.76,1.76,0,0,1,0-3.52h0A1.76,1.76,0,0,1,28,9.2Z"/></svg>