<svg id="Layer_1" data-name="Layer 1" xmlns="http://www.w3.org/2000/svg" viewBox="0 0 36 36"><defs><style>.cls-1{fill:none;stroke:#16a085;stroke-linecap:round;stroke-linejoin:round;}</style></defs><title>Collaboration</title><polyline class="cls-1" points="13.65 12.57 16.19 12.57 19.81 12.57 19.81 2.91 14.98 2.91 12.57 2.91"/><polyline class="cls-1" points="23.43 13.65 23.43 16.19 23.43 19.81 33.09 19.81 33.09 14.98 33.09 12.57"/><polyline class="cls-1" points="22.35 23.43 19.81 23.43 16.19 23.43 16.19 33.09 21.02 33.09 23.43 33.09"/><polyline class="cls-1" points="12.57 22.35 12.57 19.81 12.57 16.19 2.91 16.19 2.91 21.02 2.91 23.43"/><path class="cls-1" d="M12.57,9.55V2.31a1.21,1.21,0,0,0-2.41,0v-.6a1.21,1.21,0,1,0-2.41,0v.6a1.21,1.21,0,1,0-2.41,0v.6a1.21,1.21,0,0,0-2.41,0V9.55a37.82,37.82,0,0,0,.6,6.64h7.84L15,10.46c.45-.66.52-3.07-.32-3.9a2,2,0,0,0-2.09-.62"/><path class="cls-1" d="M26.45,12.57h7.24a1.21,1.21,0,0,0,0-2.41h.6a1.21,1.21,0,0,0,0-2.41h-.6a1.21,1.21,0,0,0,0-2.41h-.6a1.21,1.21,0,0,0,0-2.41H26.45a37.82,37.82,0,0,0-6.64.6v7.84L25.54,15c.66.45,3.07.52,3.9-.32a2,2,0,0,0,.62-2.09"/><path class="cls-1" d="M23.43,26.45v7.24a1.21,1.21,0,0,0,2.41,0v.6a1.21,1.21,0,0,0,2.41,0v-.6a1.21,1.21,0,1,0,2.41,0v-.6a1.21,1.21,0,0,0,2.41,0V26.45a37.82,37.82,0,0,0-.6-6.64H24.64L21,25.54c-.45.66-.52,3.07.32,3.9a2,2,0,0,0,2.09.62"/><path class="cls-1" d="M9.55,23.43H2.31a1.21,1.21,0,1,0,0,2.41h-.6a1.21,1.21,0,1,0,0,2.41h.6a1.21,1.21,0,0,0,0,2.41h.6a1.21,1.21,0,1,0,0,2.41H9.55a37.82,37.82,0,0,0,6.64-.6V24.64L10.46,21c-.66-.45-3.07-.52-3.9.32a2,2,0,0,0-.62,2.09"/></svg>