<svg id="Layer_1" data-name="Layer 1" xmlns="http://www.w3.org/2000/svg" viewBox="0 0 36 36"><defs><style>.cls-1,.cls-2{fill:none;stroke:#16a085;stroke-linecap:round;stroke-linejoin:round;}.cls-1{opacity:0.01;isolation:isolate;}</style></defs><title>self service</title><path class="cls-1" d="M0,0H36V36H0Z"/><path class="cls-2" d="M23.35,30.43H4.29A3.74,3.74,0,0,1,.55,26.69h0V9.58H33V25.43"/><path class="cls-2" d="M4.49,3H29a4,4,0,0,1,4,4V9.58H.55V6.91A4,4,0,0,1,4.49,3Z"/><circle class="cls-2" cx="4.16" cy="6.27" r="1"/><circle class="cls-2" cx="7.57" cy="6.27" r="1"/><circle class="cls-2" cx="10.98" cy="6.27" r="1"/><path class="cls-2" d="M29.4,21.47a2.92,2.92,0,1,0-5.39.08"/><path class="cls-2" d="M33,25.43a1.26,1.26,0,0,0-2.51,0h0V24.6a1.26,1.26,0,0,0-1.26-1.26h0A1.26,1.26,0,0,0,28,24.6V20.43a1.26,1.26,0,0,0-2.51,0l0,7.93-2.11-1.59a1.76,1.76,0,0,0-2.3.16.84.84,0,0,0,0,1.18l6,6a3.34,3.34,0,0,0,2.36,1h2a4.18,4.18,0,0,0,4.18-4.18V26.32A1.26,1.26,0,0,0,34.37,25H34.2A1.26,1.26,0,0,0,33,26.26h0v-.84"/><path class="cls-2" d="M21.34,14.32H13m-6.58,0H9m12.3,5.35H13m-6.58,0H9M21.34,25H13M6.37,25H9"/></svg>